HIERARCHY
ROOT base
{
	OFFSET 0.0 0.0 0.0
	CHANNELS 6 Xposition Yposition Zposition Zrotation Yrotation Xrotation
	JOINT root
	{
		OFFSET 0 0 0
		CHANNELS 6 Xposition Yposition Zposition Zrotation Yrotation Xrotation
		JOINT chest
		{
			OFFSET 0 4.72302 0
			CHANNELS 3 Zrotation Yrotation Xrotation
			JOINT neck
			{
				OFFSET 0 4.47788 0
				CHANNELS 3 Zrotation Yrotation Xrotation
				End Site
				{
					OFFSET 0.0 0.0 0.0
				}
			}
			JOINT right_shoulder
			{
				OFFSET -0.481 4.87 3.6622
				CHANNELS 3 Zrotation Yrotation Xrotation
				JOINT right_elbow
				{
					OFFSET 0 -5.49576 0
					CHANNELS 3 Zrotation Yrotation Xrotation
					JOINT right_wrist
					{
						OFFSET 0 -5.17894 0
						CHANNELS 3 Zrotation Yrotation Xrotation
						End Site
						{
							OFFSET 0.0 0.0 0.0
						}
					}
				}
			}
			JOINT left_shoulder
			{
				OFFSET -0.481 4.87 -3.6622
				CHANNELS 3 Zrotation Yrotation Xrotation
				JOINT left_elbow
				{
					OFFSET 0 -5.49576 0
					CHANNELS 3 Zrotation Yrotation Xrotation
					JOINT left_wrist
					{
						OFFSET 0 -5.17894 0
						CHANNELS 3 Zrotation Yrotation Xrotation
						End Site
						{
							OFFSET 0.0 0.0 0.0
						}
					}
				}
			}
		}
		JOINT right_hip
		{
			OFFSET 0 0 1.69774
			CHANNELS 3 Zrotation Yrotation Xrotation
			JOINT right_knee
			{
				OFFSET 0 -8.43092 0
				CHANNELS 3 Zrotation Yrotation Xrotation
				JOINT right_ankle
				{
					OFFSET 0 -8.1974 0
					CHANNELS 3 Zrotation Yrotation Xrotation
					End Site
					{
						OFFSET 0.0 0.0 0.0
					}
				}
			}
		}
		JOINT left_hip
		{
			OFFSET 0 0 -1.69774
			CHANNELS 3 Zrotation Yrotation Xrotation
			JOINT left_knee
			{
				OFFSET 0 -8.43092 0
				CHANNELS 3 Zrotation Yrotation Xrotation
				JOINT left_ankle
				{
					OFFSET 0 -8.1974 0
					CHANNELS 3 Zrotation Yrotation Xrotation
					End Site
					{
						OFFSET 0.0 0.0 0.0
					}
				}
			}
		}
	}
	JOINT red_arrow
	{
		OFFSET 0 0 0
		CHANNELS 3 Zrotation Yrotation Xrotation
		End Site
		{
			OFFSET 0.0 0.0 0.0
		}
	}
	JOINT blue_arrow
	{
		OFFSET 0 0 0
		CHANNELS 3 Zrotation Yrotation Xrotation
		End Site
		{
			OFFSET 0.0 0.0 0.0
		}
	}
}
MOTION
Frames: 7
Frame Time: 0.0333333333333333
-12.1995579600334 0 10.1127820253372 0 31.4912245818379 0 0 16.5053487062454 0 -87.1790080057459 7.70215247962609 55.5185782637074 1.41780929402369 8.71868266519684 -13.4509762266721 -1.65502283184536 -11.3532670513149 12.4186588408196 25.8654673514553 23.5813534304849 -31.1997968898521 39.570263824362 0 0 0 0 0 41.6440664266973 -52.3759336613552 36.3798604151061 46.3473619339562 0 0 0 0 0 126.408933429606 -4.32135143732076 -5.83187304704366 -39.2018126846802 0 0 7.93920169670263 5.6092018476217 -4.02062274974726 105.64444140814 14.4729501031654 7.29844834333308 -44.6817793237136 0 0 12.5794027350074 16.1502093229618 -6.22651788871512 0 0 0 0 0 0
-13.1002520918846 0 9.87400993704796 0 31.3813440977463 0 0 14.9372332572937 0 -75.4181358510453 -0.525831022539086 51.2988868736151 -8.04245058406551 2.92488700715689 -8.618716640602 1.2463468670155 -8.84032025430855 14.0348836327277 31.2665472440217 27.1126193621449 -27.5396119769712 36.953594447668 0 0 0 0 0 50.6176873091058 -60.8062958721813 29.9377174297459 41.4289153918734 0 0 0 0 0 127.790811456414 3.25065736361123 -8.28619397396364 -62.6114083855906 0 0 15.5527275319896 -2.30709894943433 -3.01213727181342 99.8889044089177 18.7928051811851 7.47364166524553 -56.992648887528 0 0 31.6119350078228 15.1757862426136 -11.6402590610821 0 0 0 0 0 0
-13.4963209033012 0 9.63746629357338 0 30.4598809991054 0 0 14.5388292908669 0 -68.8998948771568 -6.47880913719206 48.241228822327 -17.1888492704033 1.46938931391497 -5.14254083579447 -2.05654593827387 -7.03946498116157 16.7872441243576 32.4248720619514 24.436473803882 -24.9673284741618 34.1123416208748 0 0 0 0 0 53.014519976383 -56.8698208357596 24.2944285353286 35.2035872841894 0 0 0 0 0 122.04192842288 5.98486050119439 -8.15092064498639 -66.1795196985728 0 0 15.2286161696695 -5.62384835902075 -1.68796973916752 96.0902811319029 20.0958057473813 9.2630604333273 -63.4005001404022 0 0 33.4424108558492 11.3956946451776 -10.9487385421084 0 0 0 0 0 0
-13.7482363820076 0 9.41905590891838 0 29.1861580749299 0 0 14.4101756334305 0 -63.4715896494972 -11.350449617532 43.6813733493078 -22.881562207818 0.264018731033745 0.0458376518878415 -6.520872288913 -4.52413827544185 19.5350641803819 31.6503998560461 21.966411779122 -25.0772348061511 30.5425091002218 0 0 0 0 0 48.0029210178524 -47.6684028639016 26.2396372513679 30.9981612650371 0 0 0 0 0 115.622441676109 4.01602834276418 -9.78090532365936 -66.4051959789392 0 0 14.2287729519345 -5.29246949748904 -1.29595633329822 91.6157280451838 19.4376138874181 10.4190330923094 -66.2078786440067 0 0 33.9179704982232 9.22732366798542 -9.96017650907079 0 0 0 0 0 0
-13.8870116233826 0 9.25324179530144 0 27.7951707893869 0 0 14.4013845205307 0 -57.38620403291 -14.996627236814 38.6599018092632 -25.7624774314841 -0.60344991560767 4.28557732684686 -10.9664446958123 -1.84485441788828 22.086484955936 31.4744846386465 20.9095587250099 -23.6704421824868 25.9803781592129 0 0 0 0 0 44.9765725631558 -40.3399364659718 25.9802333501558 27.0973872960768 0 0 0 0 0 108.642882035442 1.51789345318554 -11.9375880753648 -65.7340137797695 0 0 13.4331821954428 -4.38565602134608 -1.13806027865694 85.9535412091804 18.6650142577288 10.7337835623764 -67.1197020680142 0 0 33.792390364746 7.48040514501278 -9.0983199420735 0 0 0 0 0 0
-13.9294074773788 0 9.12909783422947 0 26.373866000719 0 0 14.543204164505 0 -51.1853582798691 -17.7154616023662 33.6428643327465 -26.2220250005659 -1.66091603634781 7.55982691815282 -15.1141501874142 -0.0463817715173827 22.4886487594408 32.3611940899054 20.0044336110075 -20.3392780165235 22.6917445266893 0 0 0 0 0 42.8420910090366 -35.223267175638 23.6570155183459 23.5166401331301 0 0 0 0 0 100.724648173585 -0.225448559698206 -13.1512666056019 -63.5839658516979 0 0 12.4342592562113 -4.53258642362233 -0.614679177434494 79.2857406028553 17.8689289978969 10.6081502621101 -66.0145842904953 0 0 33.0099496039222 6.29784019694471 -8.38001911105027 0 0 0 0 0 0
-13.8734560251236 0 9.07048685848713 0 24.9580625783694 0 0 14.9326857089996 0 -45.4610170841966 -19.5876823878438 28.5844849058941 -24.7033622000455 -2.97157375700804 10.3884303750715 -18.9732300483984 0.826903276641524 21.2384398766157 32.9038645520372 18.2203941401788 -16.4278098385693 21.0470605877596 0 0 0 0 0 40.3115182622704 -31.7505528101552 20.4222364821346 21.3820079420152 0 0 0 0 0 91.2527908343827 -1.66258676917735 -13.0086436137827 -58.4599989174893 0 0 10.6382254198209 -5.95765855490005 0.228413401650957 71.5181059217646 17.1781297115496 10.4703652733085 -61.6433929952814 0 0 30.9050095961104 5.27742173107411 -7.88630126727728 0 0 0 0 0 0
